<?xml version="1.0" encoding="utf-8"?>
<!-- Generator: Adobe Illustrator 21.0.2, SVG Export Plug-In . SVG Version: 6.00 Build 0)  -->
<svg version="1.1" id="Layer_1" xmlns="http://www.w3.org/2000/svg" xmlns:xlink="http://www.w3.org/1999/xlink" x="0px" y="0px"
	 viewBox="0 0 237.5 30.7" style="enable-background:new 0 0 237.5 30.7;" xml:space="preserve">
<style type="text/css">
	.st0{fill:#F5F1DB;}
</style>
<g>
	<path class="st0" d="M7.2,7.1c-0.7,0-2.6,1.7-3,1.7c-0.4,0-1.3-0.9-1.3-1.3c0-0.7,3.2-5.3,3.9-5.3c1.3,0,6.8,1.3,7.7,1.3
		c0.6,0,3.2-1.3,3.7-1.3c0.7,0,2.1,2.3,2.1,2.9c0,0.6-8.3,8-8.3,8s1.6-0.3,2.1-0.3c2.2,0,5.1,3.4,5.1,5.6c0,4.5-6.1,12.5-9.7,12.5
		c-2.1,0-5.1-0.9-5.8-1.3c-1-0.6-3.8-3.8-3.8-4.6s2.7-3.1,3.5-3.1c0.7,0,1.8,2.4,3,4.3c0.2,0.3,2,1.3,2.9,1.3c1.8,0,4.5-7.3,4.5-9.8
		c0-0.8-1-2.2-2.3-2.2c-0.8,0-2.1,1.1-2.9,1.1c-0.6,0-2.6-1.9-2.6-2.7c0-0.1,0-0.4,0.3-0.6c1.3-1.3,6.6-6.1,6.6-6.1H7.2z"/>
	<path class="st0" d="M27.8,12.2c0,0,3.5-1.5,5.1-1.5c1.9,0,6.4,3.4,6.4,5.7c0,4.8-5.5,14.4-10.2,14.4c-2.1,0-5.1-0.9-5.8-1.3
		c-1-0.6-3.8-3.8-3.8-4.6s2.7-3.1,3.5-3.1c0.7,0,1.8,2.4,3,4.3c0.2,0.3,2,1.3,2.9,1.3c1.8,0,4.7-7.5,4.7-10.5c0-1.3-1.5-2.8-2.5-2.8
		c-1.1,0-3,0.6-4.1,1.3c-0.7,0.5-1.6,2-2.2,2s-3.3-2-3.3-2.6c0-0.6,1.3-1.4,1.6-2c0.5-1.3,3.1-8.3,3.6-9.5c0.2-0.6,1-1.1,1.6-1.1
		c0,0,9.2,0.4,9.6,0.4c0.4,0,1.7-0.9,2.1-0.9c0.4,0,1.3,0.8,1.3,1.2c0,0.7-2.2,4.2-2.9,4.2c-1.3,0-8.1-1.1-8.1-1.1L27.8,12.2z"/>
	<path class="st0" d="M46.5,30.7c-0.4,0-3.2-2.1-3.2-2.7c0-0.6,1.9-2.1,2.2-3c0.2-0.5,0.7-2.4,1.4-4.8c-0.6,0-1.8-2-1.8-2.5
		c0-0.3,0.2-0.5,0.6-0.6l2.1-0.3c1-3.4,1.9-6.8,2.2-8c0.4-1.5,2.1-4,2.6-4c0.9,0,3.8,1.7,3.8,2.3c0,0.3-1.1,2-1.5,3.2
		c-0.3,0.9-0.9,3.1-1.6,5.6c0,0,2.6-0.5,3.3-0.7c2.1-0.5,6.1-4.5,6.1-7.4c0-2.1-2-3.1-2.8-3.3c-1.2-0.3-3.6-0.5-5.7-0.5
		c-2.3,0-5.2,0.3-6.4,0.5c-1.3,0.3-3.2,2.6-3.2,3.7c0,1,1.5,3.8,1.5,4.4s-1.6,1.7-2.3,1.7c-0.9,0-4-3.9-4-5.4c0-2.4,5.4-7.2,8.6-8.2
		C49.4,0.2,52,0,54,0C56,0,58.6,0,60,0.3c2.7,0.6,7.7,3.9,7.7,8c0,3.1-5.7,7.9-9,9.5c1.4,2.1,1.9,5.8,3.5,8.6c0.5,1,1.9,1.4,1.9,1.9
		c0,0.5-1.8,2.3-2.5,2.3c-0.8,0-3.7-1-4.2-2.5c-1.1-2.9-1.4-8.2-2.4-9.4l-2.7,0.5c-0.9,3.5-1.7,6.4-1.9,7C49.7,28,47,30.7,46.5,30.7
		z"/>
	<path class="st0" d="M74.4,10.4c2.2,0,6.2,2.2,6.2,4c0,2.2-2.8,9.1-5.6,9.1c-1.9,0-4.1-0.6-4.1-0.6s-0.3,0.7-0.3,2.1
		c0,1,1.9,2.6,3.7,2.6c2.3,0,5.8-1.6,8.6-7.1c0,0,0.3-0.8,0.9-0.8c0.6,0,1.5,0.7,1.5,1.2s-0.5,1.5-0.5,1.5
		c-2.9,5.6-6.7,8.3-10.2,8.3c-3.8,0-9-2.8-9-6.2C65.5,19.6,70.4,10.4,74.4,10.4z M77.2,14.8c0-0.6-0.7-1.1-1.3-1.1
		c-1.7,0-4.2,5.1-4.6,7.2C75.4,20.9,77.2,16,77.2,14.8z"/>
	<path class="st0" d="M107.9,27.7c1.3,0,3.6-3.3,5.8-7.2c0,0,0.4-0.8,1-0.8s1.5,0.7,1.5,1.2s-0.6,1.5-0.6,1.5
		c-2.4,4.3-4.9,8.3-8,8.3c-1.9,0-5.8-1.8-5.8-3.8c0-2.1,2.4-9.7,2.4-11.3c0-0.7-0.7-1.5-1.3-1.5c-1,0-3.5,1.4-3.9,2.9
		c-1,2.6-2.9,11.5-3.1,12.7c-0.1,0.6-0.3,1-1,1c-1,0-3.5-1.1-3.5-2.3c0-1.1,2.9-12.2,2.9-13.1c0-0.8-0.6-1.2-1.2-1.2
		c-0.9,0-3.4,1.1-4,2.8c-1.1,2.9-3.1,11.6-3.4,12.8c-0.2,0.6-0.3,1-1,1c-1,0-3.5-1.1-3.5-2.3c0-1.1,3.3-14.2,4.2-17.1
		c0.2-0.6,0.8-0.9,1.4-0.9c0.7,0,2.8,2.6,2.8,2.6s3.7-2.6,6-2.6c1.9,0,4,2.9,4,2.9s4.1-2.9,6.4-2.9c1.3,0,3.7,1.8,3.7,3.4
		c0,2-2.7,10.5-2.7,12.8C106.8,27.1,107.5,27.7,107.9,27.7z"/>
	<path class="st0" d="M135.9,19.7c0.6,0,1.5,0.7,1.5,1.2s-0.6,1.5-0.6,1.5c-2.4,4.3-4.9,8.3-8,8.3c-1.9,0-5.5-1.6-5.9-2.9
		c0,0-2.6,2.9-4.8,2.9c-2,0-5.6-2.7-5.6-5.1c0-5.7,5.1-15.3,9.1-15.3c3.5,0,5.7,2.6,5.7,2.6c1.1,0,3.7,0.3,3.7,1.4
		c0,1.5-2.9,8.7-2.9,12.2c0,0.6,0.8,1.2,1.2,1.2c1.3,0,3.6-3.3,5.8-7.2C135,20.5,135.4,19.7,135.9,19.7z M123.2,13.8
		c-2.2,0-5.6,8-5.6,11.8c0,1,0.8,1.7,1.5,1.7c0.9,0,3-1.5,4.2-4c0.9-1.8,2.2-7,2.2-8.3C125.6,14.4,123.9,13.8,123.2,13.8z"/>
	<path class="st0" d="M152.4,20.5c0,0,0.4-0.8,1-0.8c0.6,0,1.5,0.7,1.5,1.2s-0.6,1.5-0.6,1.5c-2.4,4.3-6.6,8.3-13.1,8.3
		c-4.3,0-8.9-4.6-8.9-7.3c0-2.1,3.6-3.8,3.6-3.8s4.2-6.4,5.6-8.8c0.3-0.5,0.8-1,1.4-1c0.6,0,3.2,1.7,3.2,2.5c0,4.2,1.6,8,1.6,11.2
		c0,1.6-1.3,3.5-1.3,3.5C148.3,26.1,150.3,24.4,152.4,20.5z M137.5,23.2c0,2.2,1.4,4.4,2.6,4.4c1.5,0,2.6-1.5,2.6-3.1
		c0-3.1-1-6.4-1-8.7C141.7,15.9,137.5,21.8,137.5,23.2z"/>
	<path class="st0" d="M159.8,10.8h3.7c0.3,0,0.5,0.1,0.5,0.4c0,0.6-0.8,2.3-1.5,2.3h-3.5c-1.4,4.9-3,10.8-3,11.8
		c0,1.4,1.2,2.4,2.4,2.4c1.3,0,3.6-3.3,5.8-7.2c0,0,0.4-0.8,1-0.8s1.5,0.7,1.5,1.2s-0.6,1.5-0.6,1.5c-2.4,4.3-4.9,8.3-8.1,8.3
		c-2.9,0-7-2-7-4.2c0-1.2,1.6-7.4,3-13h-1.5c-0.2,0-0.5-0.2-0.5-0.4c0-0.5,0.8-2.2,1.5-2.2h1.2c0.8-3,1.5-5.5,1.8-6.5
		c0.2-0.6,0.6-1,0.9-1c0.9,0,3.7,1.6,3.7,2.4c0,0.3-0.1,0.7-0.2,1L159.8,10.8z"/>
	<path class="st0" d="M172.3,10.4c2.2,0,6.2,2.2,6.2,4c0,2.2-2.8,9.1-5.6,9.1c-1.9,0-4.1-0.6-4.1-0.6s-0.3,0.7-0.3,2.1
		c0,1,1.9,2.6,3.7,2.6c2.3,0,5.8-1.6,8.6-7.1c0,0,0.3-0.8,0.9-0.8c0.6,0,1.5,0.7,1.5,1.2s-0.5,1.5-0.5,1.5
		c-2.9,5.6-6.7,8.3-10.2,8.3c-3.8,0-9-2.8-9-6.2C163.3,19.6,168.2,10.4,172.3,10.4z M175,14.8c0-0.6-0.7-1.1-1.3-1.1
		c-1.7,0-4.2,5.1-4.6,7.2C173.3,20.9,175,16,175,14.8z"/>
	<path class="st0" d="M197.2,20.5c0,0,0.4-0.8,1-0.8c0.6,0,1.5,0.7,1.5,1.2s-0.6,1.5-0.6,1.5c-2.4,4.3-4.9,8.3-8,8.3
		c-1.9,0-5.4-1.6-5.4-3.3c0-3.4,2.3-9.6,2.3-11.5c0-0.5-1.7-0.8-1.7-0.8s-1.5,3.5-3.6,7.4c0,0-0.4,0.8-1,0.8c-0.6,0-1.5-0.7-1.5-1.2
		c0-0.5,0.6-1.6,0.6-1.6c1.5-2.7,3.1-6.7,3.1-6.7s-1.8-1.1-1.8-2.6c0-1.5,1.8-4.8,2.9-4.8c1.3,0,3.5,1.4,3.5,2.4
		c0,0.9-0.6,2-0.6,3.1c0,1.1,5.5,1.5,5.5,3.3c0,1.4-2.5,9.3-2.5,11.8c0,0.5,0.4,0.8,0.8,0.8C192.8,27.7,195.1,24.4,197.2,20.5z"/>
	<path class="st0" d="M205.3,10.4c2.2,0,6.2,2.2,6.2,4c0,2.2-2.8,9.1-5.6,9.1c-1.9,0-4.1-0.6-4.1-0.6s-0.3,0.7-0.3,2.1
		c0,1,1.9,2.6,3.7,2.6c2.3,0,5.8-1.6,8.6-7.1c0,0,0.3-0.8,0.9-0.8c0.6,0,1.5,0.7,1.5,1.2s-0.5,1.5-0.5,1.5
		c-2.9,5.6-6.7,8.3-10.2,8.3c-3.8,0-9-2.8-9-6.2C196.4,19.6,201.3,10.4,205.3,10.4z M208.1,14.8c0-0.6-0.7-1.1-1.3-1.1
		c-1.7,0-4.2,5.1-4.6,7.2C206.3,20.9,208.1,16,208.1,14.8z"/>
	<path class="st0" d="M223.3,27.8c0,0-3.2,2.9-5.1,2.9c-2.6,0-5.6-3-5.6-4.8c0-5.7,4.8-15.5,9.3-15.5c2.4,0,4.5,1.8,4.5,1.8
		s1.9-7,2.6-9c0.2-0.6,0.8-1,1.4-1c0.5,0,3.2,1.6,3.2,2.4c0,1.1-0.8,3.1-2.5,9.2c-1.2,4.4-3.1,10.7-3.1,12.8c0,0.6,0.8,1.2,1.2,1.2
		c1.3,0,3.6-3.3,5.8-7.2c0,0,0.3-0.8,0.9-0.8c0.6,0,1.5,0.7,1.5,1.2s-0.6,1.5-0.6,1.5c-2.4,4.3-4.9,8.3-8,8.3
		C226.9,30.7,223.9,28.7,223.3,27.8z M223.3,13.8c-2.4,0-5.6,8.7-5.6,11.4c0,1.3,0.7,2.2,1.6,2.2c1.3,0,3.6-2.9,4.2-4.3
		c1-2.8,1.6-5.1,2.2-8C225.7,15,224.3,13.8,223.3,13.8z"/>
</g>
</svg>
